<svg width="80" height="14" viewBox="0 0 80 14" fill="none" xmlns="http://www.w3.org/2000/svg">
<circle cx="12.461" cy="10.193" r="0.614035" transform="rotate(120 12.461 10.193)" fill="white" style="fill:white;fill-opacity:1;"/>
<circle cx="11.4461" cy="11.5156" r="0.614035" transform="rotate(135 11.4461 11.5156)" fill="white" style="fill:white;fill-opacity:1;"/>
<circle cx="10.1236" cy="12.5306" r="0.614035" transform="rotate(150 10.1236 12.5306)" fill="white" style="fill:white;fill-opacity:1;"/>
<circle cx="8.58341" cy="13.1684" r="0.614035" transform="rotate(165 8.58341 13.1684)" fill="white" style="fill:white;fill-opacity:1;"/>
<circle cx="6.93089" cy="13.386" r="0.614035" transform="rotate(-180 6.93089 13.386)" fill="white" style="fill:white;fill-opacity:1;"/>
<circle cx="5.27773" cy="13.1684" r="0.614035" transform="rotate(-165 5.27773 13.1684)" fill="white" style="fill:white;fill-opacity:1;"/>
<circle cx="3.73765" cy="12.5304" r="0.614035" transform="rotate(-150 3.73765 12.5304)" fill="white" style="fill:white;fill-opacity:1;"/>
<circle cx="2.41504" cy="11.5159" r="0.614035" transform="rotate(-135 2.41504 11.5159)" fill="white" style="fill:white;fill-opacity:1;"/>
<circle cx="1.40053" cy="10.193" r="0.614035" transform="rotate(-120 1.40053 10.193)" fill="white" style="fill:white;fill-opacity:1;"/>
<circle cx="1.40047" cy="3.80727" r="0.614035" transform="rotate(120 1.40047 3.80727)" fill="white" style="fill:white;fill-opacity:1;"/>
<circle cx="2.41531" cy="2.48438" r="0.614035" transform="rotate(135 2.41531 2.48438)" fill="white" style="fill:white;fill-opacity:1;"/>
<circle cx="3.73787" cy="1.46958" r="0.614035" transform="rotate(150 3.73787 1.46958)" fill="white" style="fill:white;fill-opacity:1;"/>
<circle cx="5.27775" cy="0.831925" r="0.614035" transform="rotate(165 5.27775 0.831925)" fill="white" style="fill:white;fill-opacity:1;"/>
<circle cx="6.93089" cy="0.613992" r="0.614035" transform="rotate(-180 6.93089 0.613992)" fill="white" style="fill:white;fill-opacity:1;"/>
<circle cx="8.58339" cy="0.83146" r="0.614035" transform="rotate(-165 8.58339 0.83146)" fill="white" style="fill:white;fill-opacity:1;"/>
<circle cx="10.1239" cy="1.46981" r="0.614035" transform="rotate(-150 10.1239 1.46981)" fill="white" style="fill:white;fill-opacity:1;"/>
<circle cx="11.4463" cy="2.48416" r="0.614035" transform="rotate(-135 11.4463 2.48416)" fill="white" style="fill:white;fill-opacity:1;"/>
<circle cx="12.4611" cy="3.80721" r="0.614035" transform="rotate(-120 12.4611 3.80721)" fill="white" style="fill:white;fill-opacity:1;"/>
<circle cx="11.0785" cy="9.39513" r="0.491228" transform="rotate(120 11.0785 9.39513)" fill="white" style="fill:white;fill-opacity:1;"/>
<circle cx="10.3175" cy="10.3867" r="0.491228" transform="rotate(135 10.3175 10.3867)" fill="white" style="fill:white;fill-opacity:1;"/>
<circle cx="9.32555" cy="11.1483" r="0.491228" transform="rotate(150 9.32555 11.1483)" fill="white" style="fill:white;fill-opacity:1;"/>
<circle cx="8.17034" cy="11.6268" r="0.491228" transform="rotate(165 8.17034 11.6268)" fill="white" style="fill:white;fill-opacity:1;"/>
<circle cx="6.93065" cy="11.7895" r="0.491228" transform="rotate(-180 6.93065 11.7895)" fill="white" style="fill:white;fill-opacity:1;"/>
<circle cx="5.69074" cy="11.6264" r="0.491228" transform="rotate(-165 5.69074 11.6264)" fill="white" style="fill:white;fill-opacity:1;"/>
<circle cx="4.53602" cy="11.1478" r="0.491228" transform="rotate(-150 4.53602 11.1478)" fill="white" style="fill:white;fill-opacity:1;"/>
<circle cx="3.54395" cy="10.3868" r="0.491228" transform="rotate(-135 3.54395 10.3868)" fill="white" style="fill:white;fill-opacity:1;"/>
<circle cx="2.78283" cy="9.39489" r="0.491228" transform="rotate(-120 2.78283 9.39489)" fill="white" style="fill:white;fill-opacity:1;"/>
<circle cx="2.78258" cy="4.60558" r="0.491228" transform="rotate(120 2.78258 4.60558)" fill="white" style="fill:white;fill-opacity:1;"/>
<circle cx="3.54407" cy="3.61377" r="0.491228" transform="rotate(135 3.54407 3.61377)" fill="white" style="fill:white;fill-opacity:1;"/>
<circle cx="4.536" cy="2.85242" r="0.491228" transform="rotate(150 4.536 2.85242)" fill="white" style="fill:white;fill-opacity:1;"/>
<circle cx="5.69134" cy="2.37433" r="0.491228" transform="rotate(165 5.69134 2.37433)" fill="white" style="fill:white;fill-opacity:1;"/>
<circle cx="6.93065" cy="2.21092" r="0.491228" transform="rotate(-180 6.93065 2.21092)" fill="white" style="fill:white;fill-opacity:1;"/>
<circle cx="8.17023" cy="2.37396" r="0.491228" transform="rotate(-165 8.17023 2.37396)" fill="white" style="fill:white;fill-opacity:1;"/>
<circle cx="9.32508" cy="2.85241" r="0.491228" transform="rotate(-150 9.32508 2.85241)" fill="white" style="fill:white;fill-opacity:1;"/>
<circle cx="10.3169" cy="3.61389" r="0.491228" transform="rotate(-135 10.3169 3.61389)" fill="white" style="fill:white;fill-opacity:1;"/>
<circle cx="11.0782" cy="4.60583" r="0.491228" transform="rotate(-120 11.0782 4.60583)" fill="white" style="fill:white;fill-opacity:1;"/>
<circle cx="9.90835" cy="8.71932" r="0.368421" transform="rotate(120 9.90835 8.71932)" fill="white" style="fill:white;fill-opacity:1;"/>
<circle cx="9.36228" cy="9.43164" r="0.368421" transform="rotate(135 9.36228 9.43164)" fill="white" style="fill:white;fill-opacity:1;"/>
<circle cx="8.65005" cy="9.97794" r="0.368421" transform="rotate(150 8.65005 9.97794)" fill="white" style="fill:white;fill-opacity:1;"/>
<circle cx="7.82075" cy="10.3215" r="0.368421" transform="rotate(165 7.82075 10.3215)" fill="white" style="fill:white;fill-opacity:1;"/>
<circle cx="6.93041" cy="10.4387" r="0.368421" transform="rotate(-180 6.93041 10.4387)" fill="white" style="fill:white;fill-opacity:1;"/>
<circle cx="6.04076" cy="10.3217" r="0.368421" transform="rotate(-165 6.04076 10.3217)" fill="white" style="fill:white;fill-opacity:1;"/>
<circle cx="5.21134" cy="9.97817" r="0.368421" transform="rotate(-150 5.21134 9.97817)" fill="white" style="fill:white;fill-opacity:1;"/>
<circle cx="4.49951" cy="9.43161" r="0.368421" transform="rotate(-135 4.49951 9.43161)" fill="white" style="fill:white;fill-opacity:1;"/>
<circle cx="3.95272" cy="8.71938" r="0.368421" transform="rotate(-120 3.95272 8.71938)" fill="white" style="fill:white;fill-opacity:1;"/>
<circle cx="3.95278" cy="5.28085" r="0.368421" transform="rotate(120 3.95278 5.28085)" fill="white" style="fill:white;fill-opacity:1;"/>
<circle cx="4.49948" cy="4.56885" r="0.368421" transform="rotate(135 4.49948 4.56885)" fill="white" style="fill:white;fill-opacity:1;"/>
<circle cx="5.21108" cy="4.02238" r="0.368421" transform="rotate(150 5.21108 4.02238)" fill="white" style="fill:white;fill-opacity:1;"/>
<circle cx="6.04048" cy="3.67894" r="0.368421" transform="rotate(165 6.04048 3.67894)" fill="white" style="fill:white;fill-opacity:1;"/>
<circle cx="6.93041" cy="3.56175" r="0.368421" transform="rotate(-180 6.93041 3.56175)" fill="white" style="fill:white;fill-opacity:1;"/>
<circle cx="7.82054" cy="3.67866" r="0.368421" transform="rotate(-165 7.82054 3.67866)" fill="white" style="fill:white;fill-opacity:1;"/>
<circle cx="8.64982" cy="4.02212" r="0.368421" transform="rotate(-150 8.64982 4.02212)" fill="white" style="fill:white;fill-opacity:1;"/>
<circle cx="9.3623" cy="4.56882" r="0.368421" transform="rotate(-135 9.3623 4.56882)" fill="white" style="fill:white;fill-opacity:1;"/>
<circle cx="9.90829" cy="5.28091" r="0.368421" transform="rotate(-120 9.90829 5.28091)" fill="white" style="fill:white;fill-opacity:1;"/>
<circle cx="8.95159" cy="8.16705" r="0.245614" transform="rotate(120 8.95159 8.16705)" fill="white" style="fill:white;fill-opacity:1;"/>
<circle cx="8.58038" cy="8.65039" r="0.245614" transform="rotate(135 8.58038 8.65039)" fill="white" style="fill:white;fill-opacity:1;"/>
<circle cx="8.0971" cy="9.02094" r="0.245614" transform="rotate(150 8.0971 9.02094)" fill="white" style="fill:white;fill-opacity:1;"/>
<circle cx="7.53463" cy="9.25406" r="0.245614" transform="rotate(165 7.53463 9.25406)" fill="white" style="fill:white;fill-opacity:1;"/>
<circle cx="6.93066" cy="9.33349" r="0.245614" transform="rotate(-180 6.93066 9.33349)" fill="white" style="fill:white;fill-opacity:1;"/>
<circle cx="6.32681" cy="9.25387" r="0.245614" transform="rotate(-165 6.32681 9.25387)" fill="white" style="fill:white;fill-opacity:1;"/>
<circle cx="5.76361" cy="9.02093" r="0.245614" transform="rotate(-150 5.76361 9.02093)" fill="white" style="fill:white;fill-opacity:1;"/>
<circle cx="5.28076" cy="8.65021" r="0.245614" transform="rotate(-135 5.28076 8.65021)" fill="white" style="fill:white;fill-opacity:1;"/>
<circle cx="4.90973" cy="8.16693" r="0.245614" transform="rotate(-120 4.90973 8.16693)" fill="white" style="fill:white;fill-opacity:1;"/>
<circle cx="4.91009" cy="5.83355" r="0.245614" transform="rotate(120 4.91009 5.83355)" fill="white" style="fill:white;fill-opacity:1;"/>
<circle cx="5.28058" cy="5.3501" r="0.245614" transform="rotate(135 5.28058 5.3501)" fill="white" style="fill:white;fill-opacity:1;"/>
<circle cx="5.76361" cy="4.97943" r="0.245614" transform="rotate(150 5.76361 4.97943)" fill="white" style="fill:white;fill-opacity:1;"/>
<circle cx="6.32663" cy="4.74625" r="0.245614" transform="rotate(165 6.32663 4.74625)" fill="white" style="fill:white;fill-opacity:1;"/>
<circle cx="6.93066" cy="4.66698" r="0.245614" transform="rotate(-180 6.93066 4.66698)" fill="white" style="fill:white;fill-opacity:1;"/>
<circle cx="7.53433" cy="4.74606" r="0.245614" transform="rotate(-165 7.53433 4.74606)" fill="white" style="fill:white;fill-opacity:1;"/>
<circle cx="8.09711" cy="4.97943" r="0.245614" transform="rotate(-150 8.09711 4.97943)" fill="white" style="fill:white;fill-opacity:1;"/>
<circle cx="8.58057" cy="5.34992" r="0.245614" transform="rotate(-135 8.58057 5.34992)" fill="white" style="fill:white;fill-opacity:1;"/>
<circle cx="8.95123" cy="5.83343" r="0.245614" transform="rotate(-120 8.95123 5.83343)" fill="white" style="fill:white;fill-opacity:1;"/>
<circle cx="8.20675" cy="7.73733" r="0.122807" transform="rotate(120 8.20675 7.73733)" fill="white" style="fill:white;fill-opacity:1;"/>
<circle cx="5.65451" cy="6.26321" r="0.122807" transform="rotate(120 5.65451 6.26321)" fill="white" style="fill:white;fill-opacity:1;"/>
<circle cx="7.97281" cy="8.04199" r="0.122807" transform="rotate(135 7.97281 8.04199)" fill="white" style="fill:white;fill-opacity:1;"/>
<circle cx="5.88882" cy="5.9585" r="0.122807" transform="rotate(135 5.88882 5.9585)" fill="white" style="fill:white;fill-opacity:1;"/>
<circle cx="7.66769" cy="8.27634" r="0.122807" transform="rotate(150 7.66769 8.27634)" fill="white" style="fill:white;fill-opacity:1;"/>
<circle cx="6.19357" cy="5.72409" r="0.122807" transform="rotate(150 6.19357 5.72409)" fill="white" style="fill:white;fill-opacity:1;"/>
<circle cx="7.312" cy="8.42342" r="0.122807" transform="rotate(165 7.312 8.42342)" fill="white" style="fill:white;fill-opacity:1;"/>
<circle cx="6.5493" cy="5.57674" r="0.122807" transform="rotate(165 6.5493 5.57674)" fill="white" style="fill:white;fill-opacity:1;"/>
<circle cx="6.93042" cy="8.47436" r="0.122807" transform="rotate(-180 6.93042 8.47436)" fill="white" style="fill:white;fill-opacity:1;"/>
<circle cx="6.93042" cy="5.52661" r="0.122807" transform="rotate(-180 6.93042 5.52661)" fill="white" style="fill:white;fill-opacity:1;"/>
<circle cx="6.5489" cy="8.42381" r="0.122807" transform="rotate(-165 6.5489 8.42381)" fill="white" style="fill:white;fill-opacity:1;"/>
<circle cx="7.31209" cy="5.57664" r="0.122807" transform="rotate(-165 7.31209 5.57664)" fill="white" style="fill:white;fill-opacity:1;"/>
<circle cx="6.19382" cy="8.27658" r="0.122807" transform="rotate(-150 6.19382 8.27658)" fill="white" style="fill:white;fill-opacity:1;"/>
<circle cx="7.66745" cy="5.72433" r="0.122807" transform="rotate(-150 7.66745 5.72433)" fill="white" style="fill:white;fill-opacity:1;"/>
<circle cx="5.88867" cy="8.04263" r="0.122807" transform="rotate(-135 5.88867 8.04263)" fill="white" style="fill:white;fill-opacity:1;"/>
<circle cx="7.97266" cy="5.95816" r="0.122807" transform="rotate(-135 7.97266 5.95816)" fill="white" style="fill:white;fill-opacity:1;"/>
<circle cx="5.65433" cy="7.73703" r="0.122807" transform="rotate(-120 5.65433 7.73703)" fill="white" style="fill:white;fill-opacity:1;"/>
<circle cx="8.20657" cy="6.26339" r="0.122807" transform="rotate(-120 8.20657 6.26339)" fill="white" style="fill:white;fill-opacity:1;"/>
<path d="M77.0547 9.99697V4.22197H78.1594V5.15713H78.1812C78.3945 4.52822 78.843 4.15088 79.5758 4.15088C79.7508 4.15088 79.9039 4.16729 79.9969 4.17822V5.25557C79.9094 5.23916 79.6578 5.20088 79.3898 5.20088C78.7391 5.20088 78.2086 5.64385 78.2086 6.58447V9.99697H77.0547Z" fill="white" style="fill:white;fill-opacity:1;"/>
<path d="M73.4183 10.1283C71.7065 10.1283 70.6675 8.86504 70.6675 7.12051C70.6675 5.35957 71.7831 4.09082 73.3581 4.09082C74.9933 4.09082 76.0542 5.32676 76.0542 7.10957V7.42129H71.805C71.8433 8.46035 72.4229 9.16582 73.4347 9.16582C74.1894 9.16582 74.6925 8.78848 74.8565 8.2416H75.9667C75.7534 9.35723 74.7253 10.1283 73.4183 10.1283ZM71.8159 6.54629H74.9276C74.8347 5.62754 74.244 5.05332 73.369 5.05332C72.4995 5.05332 71.9144 5.62754 71.8159 6.54629Z" fill="white" style="fill:white;fill-opacity:1;"/>
<path d="M66.719 10.1119C65.2151 10.1119 64.2144 8.89785 64.2144 7.10957C64.2144 5.32676 65.2206 4.10723 66.7136 4.10723C67.4628 4.10723 68.1136 4.41895 68.4854 5.05879H68.4964V1.84863H69.6503V9.99707H68.5183V9.1166H68.5073C68.119 9.78926 67.4737 10.1119 66.719 10.1119ZM66.9542 9.1166C67.9386 9.1166 68.5729 8.32363 68.5729 7.10957C68.5729 5.89551 67.9386 5.09707 66.9542 5.09707C66.0245 5.09707 65.3847 5.80254 65.3847 7.10957C65.3847 8.41113 66.0245 9.1166 66.9542 9.1166Z" fill="white" style="fill:white;fill-opacity:1;"/>
<path d="M59.3854 6.67178V9.99678H58.2314V4.22178H59.3635V5.09131C59.7572 4.43506 60.3479 4.10693 61.108 4.10693C62.2947 4.10693 63.1971 4.88896 63.1971 6.39834V9.99678H62.0432V6.54053C62.0432 5.61631 61.5783 5.14053 60.7799 5.14053C59.9924 5.14053 59.3854 5.5999 59.3854 6.67178Z" fill="white" style="fill:white;fill-opacity:1;"/>
<path d="M55.7703 9.99678V4.22178H56.9242V9.99678H55.7703ZM56.3445 3.22646C55.9344 3.22646 55.6172 2.91475 55.6172 2.521C55.6172 2.12178 55.9344 1.81006 56.3445 1.81006C56.7547 1.81006 57.0773 2.12178 57.0773 2.521C57.0773 2.91475 56.7547 3.22646 56.3445 3.22646Z" fill="white" style="fill:white;fill-opacity:1;"/>
<path d="M49.5522 9.99707V1.84863H54.8569V2.91504H50.7663V5.3541H54.5452V6.4041H50.7663V9.99707H49.5522Z" fill="white" style="fill:white;fill-opacity:1;"/>
<path d="M43.1541 10.1283C41.4424 10.1283 40.4033 8.86504 40.4033 7.12051C40.4033 5.35957 41.5189 4.09082 43.0939 4.09082C44.7291 4.09082 45.79 5.32676 45.79 7.10957V7.42129H41.5408C41.5791 8.46035 42.1588 9.16582 43.1705 9.16582C43.9252 9.16582 44.4283 8.78848 44.5924 8.2416H45.7025C45.4893 9.35723 44.4611 10.1283 43.1541 10.1283ZM41.5518 6.54629H44.6635C44.5705 5.62754 43.9799 5.05332 43.1049 5.05332C42.2354 5.05332 41.6502 5.62754 41.5518 6.54629Z" fill="white" style="fill:white;fill-opacity:1;"/>
<path d="M39.3805 1.84863V9.99707H38.2266V1.84863H39.3805Z" fill="white" style="fill:white;fill-opacity:1;"/>
<path d="M32.3422 12.2826V11.3092H32.9656C33.3266 11.3092 33.5398 11.1123 33.7148 10.642L33.9773 9.9584L31.7461 4.22168H32.982L34.1359 7.38809C34.2891 7.82012 34.4312 8.25215 34.5734 8.68418C34.7156 8.25215 34.8633 7.82012 35.0164 7.38809L36.1539 4.22168H37.3734L34.7484 11.0084C34.4258 11.8451 33.857 12.2826 33.075 12.2826H32.3422Z" fill="white" style="fill:white;fill-opacity:1;"/>
<path d="M31.0461 4.22197V5.17354H29.8758V8.47119C29.8758 8.89775 30.0234 9.04541 30.4828 9.04541H31.0461V9.99697H30.3187C29.2359 9.99697 28.7164 9.54853 28.7164 8.61885V5.17354H27.6992V4.22197H28.7164V2.64697H29.8758V4.22197H31.0461Z" fill="white" style="fill:white;fill-opacity:1;"/>
<path d="M24.1555 10.1282C22.2031 10.1282 21 9.07822 21 7.35557H22.2141C22.2195 8.43291 22.9359 9.06729 24.1555 9.06729C25.2602 9.06729 25.9875 8.55869 25.9875 7.76572C25.9875 7.13682 25.5555 6.77588 24.4234 6.50791L23.532 6.29463C21.8859 5.90635 21.1641 5.22275 21.1641 4.09619C21.1641 2.66338 22.318 1.71729 24.068 1.71729C25.8234 1.71729 26.9336 2.69619 26.9828 4.2876H25.807C25.7469 3.35244 25.0797 2.77822 24.0516 2.77822C23.0672 2.77822 22.3727 3.29775 22.3727 4.03604C22.3727 4.62666 22.8102 4.96572 23.9312 5.23369L24.8117 5.4415C26.4469 5.82979 27.2016 6.53525 27.2016 7.7001C27.2016 9.16572 26.0039 10.1282 24.1555 10.1282Z" fill="white" style="fill:white;fill-opacity:1;"/>
</svg>
